<?xml version="1.0" encoding="utf-8"?>
<!-- Generator: Adobe Illustrator 24.0.3, SVG Export Plug-In . SVG Version: 6.00 Build 0)  -->
<svg version="1.1" xmlns="http://www.w3.org/2000/svg" xmlns:xlink="http://www.w3.org/1999/xlink" x="0px" y="0px"
	 viewBox="0 0 340 150" style="enable-background:new 0 0 340 150;" xml:space="preserve">
<style type="text/css">
	.st0{fill:#EBEBED;}
	.st1{fill:none;stroke:#3A8A41;stroke-width:12;stroke-miterlimit:10;}
	.st2{fill:none;stroke:#3A8A41;stroke-width:11.4062;stroke-miterlimit:10;}
	.st3{clip-path:url(#SVGID_2_);fill:#BB9478;}
	.st4{clip-path:url(#SVGID_2_);}
	.st5{fill:none;stroke:#EBEBED;stroke-width:9;stroke-miterlimit:10;}
	.st6{clip-path:url(#SVGID_2_);fill:none;stroke:#EBEBED;stroke-width:9;stroke-miterlimit:10;}
	.st7{fill:#383838;}
	.st8{fill:none;stroke:#3A8A41;stroke-width:9.6444;stroke-miterlimit:10;}
	.st9{fill:#1D1D1B;}
	.st10{fill:#BB9478;}
	.st11{display:none;}
	.st12{fill:#A06B3C;}
	.st13{fill:#FFFFFF;}
	.st14{fill:#FFEC3B;}
	.st15{fill:#00914A;}
	.st16{fill:none;stroke:#3A8A41;stroke-width:11.0939;stroke-miterlimit:10;}
	.st17{fill:#3A8A41;}
	.st18{fill:#5CA647;}
	.st19{fill:#1D1D1B;stroke:#1D1D1B;stroke-width:3;stroke-miterlimit:10;}
	.st20{fill:#F4EBD4;}
	.st21{fill:none;stroke:#593C65;stroke-width:1.3588;stroke-linecap:round;stroke-miterlimit:10;}
	.st22{fill:#593C65;}
	.st23{fill:none;stroke:#593C65;stroke-width:1.3588;stroke-linecap:square;stroke-miterlimit:10;}
	.st24{fill:none;stroke:#593C65;stroke-width:1.3588;stroke-miterlimit:10;}
	.st25{fill:none;stroke:#F4EBD4;stroke-width:11.4714;stroke-miterlimit:10;}
	.st26{fill:#CAC3A9;}
	.st27{fill:none;stroke:#636498;stroke-width:10.7523;stroke-miterlimit:10;}
	.st28{fill:none;stroke:#636498;stroke-width:10.7523;stroke-linejoin:round;stroke-miterlimit:10;}
	.st29{fill:none;stroke:#3A8A41;stroke-width:8.7663;stroke-miterlimit:10;}
	.st30{fill:none;stroke:#3A8A41;stroke-width:10.7247;stroke-miterlimit:10;}
	.st31{fill:#3A8A41;stroke:#EBEBED;stroke-width:9.6444;stroke-miterlimit:10;}
	.st32{fill:#EBEBED;stroke:#3A8A41;stroke-width:9.6444;stroke-miterlimit:10;}
	.st33{fill:none;stroke:#3A8A41;stroke-width:11;stroke-miterlimit:10;}
	.st34{fill:none;stroke:#3A8A41;stroke-width:10.7076;stroke-miterlimit:10;}
	.st35{fill:#3A8A41;stroke:#EBEBED;stroke-width:10.0556;stroke-miterlimit:10;}
	.st36{fill:none;stroke:#BB9478;stroke-width:10.7247;stroke-miterlimit:10;}
	.st37{fill:#3A8A41;stroke:#3A8A41;stroke-width:10.7247;stroke-miterlimit:10;}
	.st38{clip-path:url(#SVGID_4_);}
	.st39{clip-path:url(#SVGID_6_);}
	.st40{fill:none;stroke:#3A8A41;stroke-width:9;stroke-miterlimit:10;}
	.st41{fill:none;stroke:#EBEBED;stroke-width:10.7247;stroke-miterlimit:10;}
	.st42{fill:none;stroke:#3A8A41;stroke-width:11.4695;stroke-miterlimit:10;}
	.st43{fill:none;stroke:#BB9478;stroke-width:8.4265;stroke-miterlimit:10;}
	.st44{fill:none;stroke:#3A8A41;stroke-width:9.1077;stroke-miterlimit:10;}
	.st45{fill:none;stroke:#3A8A41;stroke-width:9.3455;stroke-miterlimit:10;}
	.st46{fill:none;stroke:#3A8A41;stroke-width:10.0147;stroke-miterlimit:10;}
	.st47{clip-path:url(#SVGID_8_);}
	.st48{clip-path:url(#SVGID_10_);}
	.st49{fill:none;stroke:#BB9478;stroke-width:12;stroke-miterlimit:10;}
	.st50{clip-path:url(#SVGID_12_);}
	.st51{fill:#BB9478;stroke:#EBEBED;stroke-width:9;stroke-miterlimit:10;}
	.st52{fill:#3A8A41;stroke:#EBEBED;stroke-width:10.3854;stroke-miterlimit:10;}
	.st53{fill:#3A8A41;stroke:#EBEBED;stroke-width:3;stroke-miterlimit:10;}
	.st54{fill:none;stroke:#3A8A41;stroke-width:4;stroke-miterlimit:10;}
</style>
<g id="Шар_1">
	<g>
		<g>
			<g>
				<g>
					
						<ellipse transform="matrix(0.9962 -8.756487e-02 8.756487e-02 0.9962 -6.3229 5.8727)" class="st0" cx="63.8" cy="75" rx="58.3" ry="58.3"/>
					<g>
						<circle class="st53" cx="43.6" cy="59.6" r="4.5"/>
						<circle class="st53" cx="64" cy="75.1" r="4.5"/>
						<circle class="st53" cx="84.4" cy="59.5" r="4.5"/>
					</g>
					<line class="st54" x1="48.1" y1="101.3" x2="79.9" y2="101.3"/>
				</g>
				<g>
					
						<ellipse transform="matrix(0.9962 -8.756486e-02 8.756486e-02 0.9962 -5.9161 15.1453)" class="st0" cx="169.7" cy="75" rx="58.3" ry="58.3"/>
					<path class="st54" d="M207.7,71.7c-1.8-21-20.4-36.6-41.4-34.7c-18.7,1.6-33.1,16.5-34.7,34.5L131,76"/>
					<path class="st54" d="M136,93.1c7,13,21.3,21.3,37,19.9c14.1-1.2,25.7-9.9,31.3-21.9l0.9-2.1"/>
					<path class="st54" d="M207.4,83.7c-3.4,6.4-10.7,9.1-16.4,6.1"/>
					<path class="st54" d="M211.6,100.6c-5.7-3-7.6-10.6-4.2-17"/>
					<path class="st54" d="M131,79.9c0.2-7.2,5.5-12.9,11.9-12.8"/>
					<path class="st54" d="M119.6,66.6c6.4,0.1,11.5,6.1,11.4,13.3"/>
				</g>
				<g>
					
						<ellipse transform="matrix(0.9085 -0.4179 0.4179 0.9085 -5.9312 122.3819)" class="st0" cx="276.5" cy="74.7" rx="58" ry="58"/>
					
						<ellipse transform="matrix(0.9085 -0.4179 0.4179 0.9085 -5.931 122.3817)" class="st54" cx="276.5" cy="74.7" rx="45.3" ry="45.3"/>
					<path class="st54" d="M306.1,73.8c0.4,11.5-6.1,22.7-17.2,27.9c-14.9,6.8-32.5,0.3-39.3-14.5c-2-4.3-2.8-8.8-2.7-13.2"/>
				</g>
			</g>
		</g>
	</g>
</g>
<g id="Шар_2">
</g>
</svg>
