<?xml version="1.0" encoding="utf-8"?>
<!-- Generator: Adobe Illustrator 24.0.3, SVG Export Plug-In . SVG Version: 6.00 Build 0)  -->
<svg version="1.1" id="Шар_1" xmlns="http://www.w3.org/2000/svg" xmlns:xlink="http://www.w3.org/1999/xlink" x="0px" y="0px"
	 viewBox="0 0 548.1 678" style="enable-background:new 0 0 548.1 678;" xml:space="preserve">
<style type="text/css">
	.st0{fill:#008E39;}
</style>
<path class="st0" d="M466.6,266.3c-4.7-5-10.9-7.6-17.8-7.4c-12.7,0.4-28.2,9.8-46.8,28.6c3.3-8.7,6.9-18.7,9.9-28.9
	c12.8-42.7,11.2-67.3-5-75.3l-0.3-0.1c-4.2-1.8-9-1.7-13.7,0.3c-10.4,4.5-22,19.1-35,44.2c0.5-3.2,1-6.3,1.5-9.4
	c6.6-46.2,0.8-71.7-17.7-77.8l-0.1,0c-5.5-1.7-11.3-0.8-16.6,2.4c-13.6,8.3-24.7,33.4-33.1,60.5c-1-23.6-5.3-40-13-48.9
	c-4.8-5.5-11-8.4-18-8.4c-6.2,0-11.6,2.5-16.2,7.5c-10.3,11.1-16.2,35.5-17.6,72.4c-0.2,4.1-0.2,8.1-0.3,11.9
	c-5-12.3-11.5-26.5-19.5-40.7c-5.3-9.3-12-16-19.3-19.4c-7.2-3.3-14.8-3.3-21.3,0.1c-13.3,6.8-20.8,27-9.2,52.2
	c12.2,26.7,18.8,67,19,116.6c0,7.1-0.1,14-0.3,20.5c-17.1,2-27.1,7.6-29.9,16.6l0,0L88.7,551.1C64,622.8,28.9,690.2-15.5,751.5
	c-82.9,114.4-84.6,128-85.2,132.5l11.9,1.6c0.6-4.5,9.9-25.9,83-127C39.4,696.3,75,627.8,100.1,555L152.2,404
	c5.3,6.7,13.8,13.7,25.3,20.8c21.4,13.2,51.3,25.8,84.1,35.3c32.4,9.4,66,15.3,92.1,15.3c11.6,0,21.6-1.2,29.4-3.7l-49.6,170.6
	c-4.8,16.6-9.3,33.5-13.3,50.3l11.7,2.8c4-16.6,8.4-33.3,13.2-49.7l54.7-188c0,0,0,0,0,0c3.2-11.1-5.3-23.6-25.4-37.1
	c8-19.4,19.5-37.4,34-52.7c6.1-6.4,12.3-12.7,18.4-18.8c15.2-15.3,29.5-29.8,38.1-42.9C475.4,289.9,476.1,276.5,466.6,266.3z
	 M157.9,387.4c0.8-2.9,6.1-6.4,18-8.1c-0.6,12.4-1.4,22.4-2,28.6C161.5,398.7,156.8,391.3,157.9,387.4z M388.2,454.4
	C388.2,454.4,388.2,454.4,388.2,454.4L388.2,454.4L388.2,454.4c-1.1,3.9-9.4,7.8-25.4,8.8c1.4-10.5,3.8-20.9,7.1-30.9
	C380.8,440.1,389.7,449.1,388.2,454.4z M454.7,299.6c-7.9,12.1-21.9,26.2-36.6,41c-6.1,6.2-12.4,12.5-18.6,19
	c-26.8,28.3-44.1,65.1-48.9,103.8c-24-0.4-54.4-5.7-85.7-14.8c-31.1-9-59.3-20.8-79.8-33.2c1.4-12,13.4-124.6-16.7-190.3
	c-8.3-18.2-4.3-32.5,3.8-36.6c7.7-4,17.4,1.8,24.7,14.6c20.8,36.7,31.1,74.6,31.2,75l11.8-2c-1.9-25.6-3.3-96.1,13.6-114.4
	c2.3-2.5,4.6-3.6,7.4-3.6c0,0,0,0,0,0c3.5,0,6.3,1.3,8.8,4.2c15.1,17.5,10.5,78.3,5.4,111.5l11.8,1.9
	c8.9-49.5,25.8-111.3,44.2-122.6c3.1-1.9,5.4-1.6,6.8-1.2c18.1,6.1,15.4,61.1-6.7,136.9c-0.2,0.8-0.4,1.4-0.4,1.5l11.5,3.5
	c12.3-34.5,38.2-92,55.5-99.5c2-0.9,3.2-0.7,4-0.4c9.4,4.9,8.9,27-1.3,60.9c-8.6,28.5-21.1,55.7-21.3,55.9l-2.4,5.2l10.9,5.6
	l3.9-4.7c14.1-17,40.3-45.6,57.5-46.1c3.5-0.1,6.3,1,8.7,3.6C461.5,278.4,464.4,284.8,454.7,299.6z"/>
<polygon class="st0" points="523.1,44.8 486.8,44.8 512.5,19.1 504,10.6 478.3,36.3 478.3,0 466.3,0 466.3,36.3 440.7,10.6 
	432.2,19.1 457.8,44.8 421.6,44.8 421.6,56.8 457.8,56.8 432.2,82.4 440.7,90.9 466.3,65.2 466.3,101.5 478.3,101.5 478.3,65.2 
	504,90.9 512.5,82.4 486.8,56.8 523.1,56.8 "/>
</svg>
