<?xml version="1.0" encoding="utf-8"?>
<!-- Generator: Adobe Illustrator 24.0.3, SVG Export Plug-In . SVG Version: 6.00 Build 0)  -->
<svg version="1.1" xmlns="http://www.w3.org/2000/svg" xmlns:xlink="http://www.w3.org/1999/xlink" x="0px" y="0px"
	 viewBox="0 0 1451 1266.3" style="enable-background:new 0 0 1451 1266.3;" xml:space="preserve">
<style type="text/css">
	.st0{fill:#EBEBED;}
	.st1{fill:#3A8A41;}
	.st2{clip-path:url(#SVGID_2_);fill:#BB9478;}
	.st3{clip-path:url(#SVGID_2_);}
	.st4{fill:none;stroke:#EBEBED;stroke-width:9;stroke-miterlimit:10;}
	.st5{clip-path:url(#SVGID_2_);fill:none;stroke:#EBEBED;stroke-width:9;stroke-miterlimit:10;}
	.st6{fill:#383838;}
	.st7{fill:none;stroke:#3A8A41;stroke-width:9.6444;stroke-miterlimit:10;}
	.st8{fill:#1D1D1B;}
	.st9{fill:#BB9478;}
	.st10{display:none;}
	.st11{fill:#A06B3C;}
	.st12{fill:#FFFFFF;}
	.st13{fill:#FFEC3B;}
	.st14{fill:#00914A;}
	.st15{fill:none;stroke:#3A8A41;stroke-width:11.0939;stroke-miterlimit:10;}
	.st16{fill:#5CA647;}
	.st17{fill:#1D1D1B;stroke:#1D1D1B;stroke-width:3;stroke-miterlimit:10;}
	.st18{fill:#F4EBD4;}
	.st19{fill:none;stroke:#593C65;stroke-width:1.3588;stroke-linecap:round;stroke-miterlimit:10;}
	.st20{fill:#593C65;}
	.st21{fill:none;stroke:#593C65;stroke-width:1.3588;stroke-linecap:square;stroke-miterlimit:10;}
	.st22{fill:none;stroke:#593C65;stroke-width:1.3588;stroke-miterlimit:10;}
	.st23{fill:none;stroke:#F4EBD4;stroke-width:11.4714;stroke-miterlimit:10;}
	.st24{fill:#CAC3A9;}
	.st25{fill:none;stroke:#636498;stroke-width:10.7523;stroke-miterlimit:10;}
	.st26{fill:none;stroke:#636498;stroke-width:10.7523;stroke-linejoin:round;stroke-miterlimit:10;}
	.st27{fill:none;stroke:#3A8A41;stroke-width:8.7663;stroke-miterlimit:10;}
	.st28{fill:none;stroke:#3A8A41;stroke-width:10.7247;stroke-miterlimit:10;}
	.st29{fill:#3A8A41;stroke:#EBEBED;stroke-width:9.6444;stroke-miterlimit:10;}
	.st30{fill:#EBEBED;stroke:#3A8A41;stroke-width:9.6444;stroke-miterlimit:10;}
	.st31{fill:none;stroke:#3A8A41;stroke-width:11;stroke-miterlimit:10;}
	.st32{fill:none;stroke:#3A8A41;stroke-width:10.7076;stroke-miterlimit:10;}
	.st33{fill:#3A8A41;stroke:#EBEBED;stroke-width:10.0556;stroke-miterlimit:10;}
	.st34{fill:none;stroke:#BB9478;stroke-width:10.7247;stroke-miterlimit:10;}
	.st35{fill:#3A8A41;stroke:#3A8A41;stroke-width:10.7247;stroke-miterlimit:10;}
	.st36{clip-path:url(#SVGID_4_);}
	.st37{clip-path:url(#SVGID_6_);}
	.st38{fill:none;stroke:#3A8A41;stroke-width:9;stroke-miterlimit:10;}
	.st39{fill:none;stroke:#EBEBED;stroke-width:10.7247;stroke-miterlimit:10;}
	.st40{fill:none;stroke:#3A8A41;stroke-width:11.4695;stroke-miterlimit:10;}
	.st41{fill:none;stroke:#3A8A41;stroke-width:12;stroke-miterlimit:10;}
	.st42{fill:none;stroke:#BB9478;stroke-width:8.4265;stroke-miterlimit:10;}
	.st43{fill:none;stroke:#3A8A41;stroke-width:9.1077;stroke-miterlimit:10;}
	.st44{fill:none;stroke:#3A8A41;stroke-width:9.3455;stroke-miterlimit:10;}
	.st45{fill:none;stroke:#3A8A41;stroke-width:10.0147;stroke-miterlimit:10;}
	.st46{clip-path:url(#SVGID_8_);}
	.st47{clip-path:url(#SVGID_10_);}
	.st48{fill:none;stroke:#BB9478;stroke-width:12;stroke-miterlimit:10;}
	.st49{clip-path:url(#SVGID_12_);}
	.st50{fill:#BB9478;stroke:#EBEBED;stroke-width:9;stroke-miterlimit:10;}
	.st51{fill:#3A8A41;stroke:#EBEBED;stroke-width:10.3854;stroke-miterlimit:10;}
	.st52{fill:#3A8A41;stroke:#EBEBED;stroke-width:3;stroke-miterlimit:10;}
	.st53{fill:none;stroke:#3A8A41;stroke-width:4;stroke-miterlimit:10;}
</style>
<g id="Шар_1">
	<g>
		<path class="st1" d="M508,812.8l-1.3,12.6l12.4-2.8l1.3-12.6L508,812.8z M460.5,888.4l-1.3,12.6l12.4-2.9l1.3-12.6L460.5,888.4z
			 M501.1,878.9l-9.2,87.1v38.9c5.4-4.1,9.1-10.4,9.8-17.6l2.2-20.7v-76.1l8.2-1.9l1.3-12.6L501.1,878.9z M467.5,822l-1.3,12.6
			l12.4-2.8l1.3-12.6L467.5,822z M1361.2,141.6l-1.4,0.4l6.2-69.5l-58.4-26.3L848.8,35.8l-15.5,88.9l-99.8,21.4
			c-119.3,26.3-208,125.5-220.8,247l-4.9,51l-79.9,17.8v90.2l66.2,18.1l-19.7,187.2l-1.3,12l11.9,1.7l1.3-11.9l19.6-185.8l26.7,6.8
			l-8.6,81.8c-0.5,0-0.9-0.1-1.4-0.1c-9.9,0-18.7,6.7-21.3,16.3c-1.5,5.7-0.8,11.6,2.1,16.8c1.1,1.9,2.5,3.6,4,5.1
			c2.6,2.5,5.8,4.2,9.4,5.2l2.5,0.7l-6,57.1l-1.3,11.9l11.9,1.7l1.3-11.9l5.9-55.5l253.8,71.5l10,83.1c1.2,10.2,10.2,17.8,20.4,17.8
			c0.8,0,1.6,0,2.4-0.1c2.8-0.3,5.4-1.2,7.7-2.5c2.4-1.3,4.4-3.1,6.1-5.2c3.3-4.2,4.8-9.4,4.2-14.7l-8-66.3l137.1,38.6
			c-2.4,32.1-21.7,299.2-21.7,299.6c0,13.8,12.8,25.9,27.4,25.9c16.1,0,26.9-12.1,27.7-23.4l32.1-494.2l192.4-80l53.6,416.8
			c1.3,10.5,10.9,18.4,22.1,18.4c0.4,0,0.8,0,1.1,0c6.5-0.3,12.4-3.2,16.4-8c3.7-4.4,5.3-9.9,4.6-15.4l-55.5-428l-0.2-1.3l27.2-11.3
			v-82.9l-40.1-5.3l-11.8-91l38.8,4.7l1.3-0.5l62.3-19.1l12.2-138.2l37-11.8l3.7-53.7L1361.2,141.6z M1311.5,61.1l41.8,18.8
			l-5.8,65.6l-44.9,14.4L1311.5,61.1z M838.2,166.5L846,122l12.9-74l440.9,10l-9.6,106l-17.9,5.8l-65.4,21
			c-12.5,4-24.7,8.9-36.6,14.4c-0.1,0-0.1,0.1-0.2,0.1c-1.8,0.8-3.5,1.7-5.2,2.5c-0.2,0.1-0.5,0.2-0.7,0.3c-1.6,0.8-3.2,1.6-4.8,2.4
			c-0.4,0.2-0.8,0.4-1.1,0.6c-1.5,0.8-2.9,1.6-4.4,2.3c-0.5,0.3-1,0.5-1.4,0.8c-1.4,0.8-2.7,1.5-4.1,2.3c-0.6,0.3-1.1,0.6-1.7,1
			c-1.3,0.7-2.5,1.5-3.8,2.2c-0.6,0.4-1.3,0.8-1.9,1.1c-1.2,0.7-2.4,1.4-3.5,2.2c-0.7,0.4-1.4,0.9-2.1,1.3c-1.1,0.7-2.2,1.4-3.3,2.1
			c-0.8,0.5-1.5,1-2.3,1.5c-1,0.7-2,1.4-3,2.1c-0.8,0.5-1.6,1.1-2.4,1.6c-1,0.7-1.9,1.3-2.9,2c-0.8,0.6-1.7,1.2-2.5,1.8
			c-0.9,0.6-1.8,1.3-2.7,2c-0.9,0.6-1.8,1.3-2.7,2c-0.8,0.6-1.6,1.3-2.5,1.9c-0.9,0.7-1.8,1.4-2.8,2.1c-0.8,0.6-1.5,1.2-2.3,1.9
			c-1,0.8-1.9,1.5-2.9,2.3c-0.7,0.6-1.4,1.2-2.1,1.8c-1,0.8-2,1.6-2.9,2.5c-0.7,0.6-1.3,1.1-2,1.7c-1,0.9-2,1.8-3,2.7
			c-0.6,0.6-1.2,1.1-1.8,1.6c-1,0.9-2.1,1.9-3.1,2.8c-0.6,0.5-1.1,1.1-1.7,1.6c-1,1-2.1,2-3.1,3c-0.5,0.5-1,1-1.5,1.5
			c-1.1,1-2.1,2.1-3.1,3.1c-0.5,0.5-1,1-1.4,1.5c-1.1,1.1-2.1,2.2-3.2,3.3c-0.5,0.5-0.9,1-1.3,1.4c-1.1,1.2-2.1,2.3-3.2,3.5
			c-0.4,0.5-0.8,0.9-1.2,1.4c-1.1,1.2-2.1,2.4-3.1,3.6c-0.4,0.5-0.8,0.9-1.2,1.4c-1,1.2-2.1,2.5-3.1,3.7c-0.4,0.4-0.7,0.9-1.1,1.3
			c-1,1.3-2.1,2.5-3.1,3.8c-0.4,0.4-0.7,0.9-1.1,1.4c-1,1.3-2,2.6-3,3.9c-0.4,0.5-0.7,0.9-1,1.4c-1,1.3-2,2.6-2.9,4
			c-0.3,0.5-0.7,0.9-1,1.4c-1,1.3-1.9,2.7-2.8,4c-0.3,0.5-0.7,1-1,1.5c-0.6,0.9-1.2,1.7-1.8,2.6L817,288L838.2,166.5z M1035,326.3
			c-1.8,2.9-3.5,5.9-5.2,8.9c-0.1,0.1-0.1,0.3-0.2,0.4c-0.7,1.3-1.4,2.6-2.1,3.9c-0.1,0.2-0.2,0.5-0.4,0.7c-0.7,1.2-1.3,2.4-1.9,3.6
			c-0.1,0.3-0.3,0.6-0.4,0.8c-0.6,1.2-1.2,2.4-1.8,3.5c-0.1,0.3-0.3,0.6-0.4,0.9c-0.6,1.2-1.2,2.3-1.7,3.5c-0.1,0.3-0.3,0.6-0.4,0.9
			c-0.6,1.2-1.1,2.4-1.7,3.6c-0.1,0.3-0.3,0.6-0.4,0.9c-0.6,1.2-1.1,2.4-1.7,3.7c-0.1,0.3-0.2,0.5-0.3,0.8c-0.6,1.3-1.1,2.6-1.7,3.8
			c-0.1,0.2-0.2,0.4-0.3,0.6c-0.6,1.4-1.1,2.8-1.7,4.1l-0.1,0.4c-5,12.2-9.1,24.8-12.5,37.5l-73.8-9.8l10.6-84.5L1035,326.3z
			 M924.9,313l-10.6,84.4l-17-2.2l10.6-84.2L924.9,313z M727,200.7c5.4-1.6,10.8-3,16.3-4.2l0.4-0.1l23,190.6l-16.8,3.3L727,200.7z
			 M738.1,393l-177.2,39.4l3-35.3c9.3-88.3,68.4-162.9,151.5-192.5L738.1,393z M755.5,193.8l68.4-14.9L803,298.4l92.9,11.2
			l-10.6,84.1l-90.2-11.9l-1-0.1l-15.6,3.1L755.5,193.8z M524.7,394.3C536.9,278,621.9,183,736.1,157.8l95-20.4l-5,28.7L748.5,183
			l-7.8,1.7c-6.9,1.5-13.7,3.3-20.4,5.4C628.2,219.1,562.1,299.8,552,395.9l-3.4,39.2l-28.5,6.3L524.7,394.3z M507.4,456.5
			L507.4,456.5L747,403.3l27.8-5.6l19.7-4L997,420.5c-0.2,0.9-0.4,1.8-0.6,2.7c-0.1,0.2-0.1,0.4-0.1,0.6c-0.3,1.4-0.6,2.8-0.9,4.2
			l-0.1,0.8c-0.3,1.4-0.5,2.7-0.8,4c0,0.3-0.1,0.6-0.2,0.9c-0.2,1.3-0.5,2.6-0.7,4c0,0.3-0.1,0.6-0.1,0.9c-0.2,1.3-0.4,2.6-0.6,3.9
			c0,0.3-0.1,0.7-0.1,1c-0.2,1.3-0.4,2.6-0.5,3.9c0,0.3-0.1,0.7-0.1,1c-0.2,1.3-0.3,2.6-0.5,3.9c0,0.3-0.1,0.7-0.1,1
			c-0.1,1.3-0.3,2.6-0.4,3.9c0,0.3-0.1,0.7-0.1,1c-0.1,1.4-0.3,2.7-0.4,4.1c0,0.3-0.1,0.6-0.1,0.9c-0.1,1.6-0.3,3.2-0.4,4.8
			c0,0,0,0,0,0.1l-0.1,1.3l-5.1,75.4l-55.8,17.7l-466.5-95.8L507.4,456.5z M935.4,665.7v-92.8l48.6-15.4l-4.6,66.2l-1.7,24.4
			L935.4,665.7z M976.8,661.5l-8.1,116.1l-147.4-38.5l-10.7-88.4L930,680.9L976.8,661.5z M504.6,560.6l-2.5-0.6l-62.2-17v-68.9
			l483.5,99.3v93.5l-114.3-29l0-0.1l-20.5-5.1l-243-61.6l-2-0.5l-3.1-0.8L504.6,560.6z M808.8,735.7l-17.8-4.5L780.3,643l5.3,1.3
			l12.5,3.2L808.8,735.7z M778.5,727.9l-242.7-63.3l8.6-81.5l223.5,56.7L778.5,727.9z M822.1,866.3c-1.4,1.8-3.5,2.9-5.8,3.2
			c-0.4,0-0.7,0.1-1,0.1c-4.3,0-8-3.1-8.5-7.3l-9.4-78.2l7.5,2.1l10.4,2.9l8.6,71.2C824.1,862.5,823.5,864.6,822.1,866.3z
			 M816.8,777.2l-33.6-9.5l-251-70.7l0-0.1l-12.4-3.4c-1.6-0.4-3.1-1.2-4.3-2.4c-0.7-0.7-1.3-1.5-1.8-2.3c-1.3-2.3-1.7-5-1-7.6
			c1.2-4.4,5.2-7.4,9.7-7.4c0.9,0,1.8,0.1,2.7,0.4l2.4,0.6L780,740.7v0l5.1,1.3l28.4,7.4l154.3,40.2l-0.2,2.8l-1.9,26.7L816.8,777.2
			z M986.5,1129l-0.2,3.6c-0.5,7.2-8.7,12.2-15.7,12.2c-7.8,0-15.2-6.6-15.4-13.7 M1031.3,625.8l6.1-85.6l175.6-57.3l8.2,64
			L1031.3,625.8z M1103.1,322.7c0.2-0.2,0.4-0.5,0.6-0.7l0.7-0.8c2-2.3,3.7-4.4,5.4-6.2c0.7-0.8,1.4-1.5,2.1-2.3
			c3.1-3.5,6.3-6.8,9.5-9.9c0.9-0.9,1.9-1.9,2.8-2.8l0.2-0.2c0.4-0.4,0.8-0.8,1.3-1.2l0.1-0.1c1.3-1.3,2.8-2.6,4.4-4.1l0.1-0.1
			c0.7-0.7,1.5-1.4,2.3-2c1.1-1,2.3-2,3.4-3l0.2-0.2c1.2-1.1,2.4-2.1,3.7-3.1c1.1-0.9,2.3-1.9,3.4-2.8c0.8-0.6,1.6-1.2,2.3-1.8
			l0.5-0.4c0.9-0.7,1.8-1.4,2.7-2.1c1-0.8,2.1-1.6,3.1-2.3l0.6-0.4c0.4-0.3,0.8-0.6,1.2-0.8l0.1-0.1c0.7-0.5,1.4-1,2.1-1.5
			c4.2-3,8.2-5.7,12.2-8.1c0.8-0.5,1.6-1,2.5-1.5l0.5-0.3c0.3-0.2,0.6-0.3,0.8-0.5l0.1-0.1c0.6-0.4,1.2-0.7,1.8-1.1l0.7-0.4
			c2.5-1.5,5-2.9,7.5-4.3c0.6-0.3,1.1-0.6,1.7-0.9c0.2-0.1,0.5-0.3,0.8-0.4l9.7,77.6L1103.1,322.7z M1195.6,345.4l11.3,90.8
			l-35.4-4.7l11-87.7L1195.6,345.4z M1170.7,342.4l-11,87.5l-17-2.2l11-87.3L1170.7,342.4z M1141.7,338.9l-11,87.2l-77.7-10.3
			c9.1-29.8,23.2-57.5,41.9-82.6L1141.7,338.9z M1208.5,448.5l2.9,22.3l-173.1,56.5l3.6-51.4c1.2-16.3,3.8-32.6,7.9-48.4
			L1208.5,448.5z M1280.1,522.3l-16.8,7l-7.8-60.2l24.6-8.1V522.3z M1259.3,455.2l-5.4,1.8l-0.3-2.5L1259.3,455.2z M1252.4,538.7
			l0.8,5.8l55.5,428c0.3,2.2-0.4,4.4-1.9,6.2c-1.8,2.2-4.7,3.5-7.8,3.7h0c-5.4,0.3-10.2-3.2-10.8-7.9l-54-420.3l-14.4-112l-23.7-190
			l18.2-7.9l1,7.7L1252.4,538.7z M1273,342.9l-34.4-4.2l-13-100.3c1.8-0.6,3.4-1.2,4.8-1.7l15.6-4.9l38.8-12.1L1273,342.9z
			 M1331.4,327l-46.2,14.2l12-125.3l45.2-14.1L1331.4,327z M1380.5,177.1l-33,10.6l-119.8,37.4c-0.5,0.2-1,0.3-1.5,0.5
			c-13.5,4.3-26.7,9.6-39.5,15.9l-5.3,2.6l0.1,0.1c-0.7,0.3-1.2,0.5-1.3,0.6c-0.7,0.4-1.4,0.7-2.1,1.1c-0.6,0.4-1.3,0.7-1.9,1
			c-2.6,1.4-5.2,2.9-7.9,4.5l-0.7,0.4c-0.6,0.4-1.2,0.7-1.8,1.1c-0.4,0.2-0.7,0.4-1.1,0.6l-0.5,0.3c-0.9,0.5-1.7,1.1-2.6,1.6
			c-4.1,2.6-8.3,5.4-12.7,8.5c-0.8,0.5-1.5,1.1-2.3,1.6c-0.4,0.3-0.9,0.6-1.3,0.9l-0.5,0.4c-1.1,0.8-2.3,1.7-3.3,2.5
			c-0.9,0.7-1.8,1.4-2.8,2.1c-0.2,0.1-0.4,0.3-0.5,0.4c-0.8,0.6-1.7,1.3-2.5,2c-1.2,0.9-2.4,1.9-3.5,2.9c-1.3,1-2.5,2.1-3.8,3.2
			c-0.1,0.1-0.2,0.2-0.4,0.3c-1.2,1-2.3,2-3.5,3c-1,0.9-1.8,1.6-2.5,2.3c-1.7,1.5-3.2,3-4.6,4.3c-0.6,0.6-1.2,1.1-1.6,1.6
			c-0.9,0.8-1.8,1.7-3,2.9c-3.3,3.3-6.7,6.8-9.9,10.4c-0.7,0.8-1.4,1.6-2.1,2.4c-1.7,1.9-3.6,4.1-5.7,6.5l-0.7,0.8
			c-0.5,0.6-1,1.2-1.5,1.8c-1.8,2.1-3.5,4.3-5.1,6.4c-0.2,0.3-0.5,0.7-0.8,1c-21.9,28.7-38,60.9-47.6,95.7
			c-5,18.2-8.3,36.9-9.6,55.8l-4.3,60.3l-7,98.5l-0.1,0.9L986.5,1129l-31.3,2.1c5.5-72.5,18.9-262.5,21.5-296.4l0.1,0l2.6-38
			l0.8-11.1l9-129.3h0l6.8-97.6l0.6-9.1l4.5-66.7l1-14.2c3.5-51.2,20.1-101,48.1-144l0.3-0.5c0.1-0.2,0.3-0.4,0.4-0.6
			c10.4-15.8,22.2-30.5,35.3-44c34.3-35.4,77.1-62.2,124.4-77.5l140-45l4.3-1.4l3.2-0.9l6.3-1.7l18.1-4.9L1380.5,177.1z"/>
		<path class="st1" d="M525.2,764.7l-11.9-1.7l-27-3.9l-11.9-1.7l-200.5-28.6l7.9-62.7c0.2-1,0.3-2,0.3-3
			c0-18.7-35.5-28.5-70.6-28.5c-35.1,0-70.6,9.8-70.6,28.5c0,1,0.1,1.9,0.3,2.9l5.6,44.6L0,689.7v12.1L148.4,723l8.4,67.9
			c0.6,15.7,23.9,27.4,54.7,27.4c31.2,0,54.8-12.1,54.8-28c0-0.6,0-1.1-0.1-1.7l0.1,0l6.1-47.9l200.7,28.7l11.9,1.7l27.1,3.9
			l11.9,1.7l88.1,12.6L520.4,810l-12.4,2.8l-28.1,6.4l-12.4,2.8L0,928v12.3l466.2-105.8l12.4-2.8l28.1-6.4l12.4-2.8l120-27.2v51.2
			L513.4,876l-12.4,2.9l-28.2,6.6l-12.4,2.9l-241.4,56.5v0l-98.1,23v0L0,996.3v12.3l121-28.4v286h12V977.4l31.7-7.4v296.3h12V967.2
			l30.4-7.1v306.2h12v-309l208.1-48.7v357.8h12V905.7l20-4.7l12.4-2.9l20.3-4.8v372.9h12V890.6l8.2-1.9l26.2-6.1v383.8h12V879.7
			L651,856.1v-73.5L525.2,764.7z M211.6,806.4c-26.1,0-42.8-9.5-42.8-16c0-6.5,16.7-16,42.8-16c26.1,0,42.8,9.5,42.8,16
			C254.4,796.9,237.7,806.4,211.6,806.4z M256.1,773.6c-9.8-6.9-25.8-11.3-44.5-11.3c-18.9,0-35,4.4-44.8,11.5l-4-32.2l99.6-17.5
			L256.1,773.6z M264,711.6l-102.6,18l-6-48.6c13.6,7,35,10.6,56.3,10.6c21.3,0,42.7-3.6,56.2-10.6L264,711.6z M270,664
			c-1.9,5.8-22.3,15.7-58.4,15.7c-36.1,0-56.6-9.9-58.4-15.7l-0.1-1c0.5-5.6,21.1-16.3,58.5-16.3c37.5,0,58.1,10.6,58.5,16.3
			L270,664z"/>
		<path class="st1" d="M408.4,248.5l-51.3-50.4c-0.3-0.3-0.6-0.5-0.9-0.8l0,0c-19.8-19.5-42.2-34.3-63.2-41.9
			c-3.2-9.7-4.8-17.8-4.8-22.9V99.3h-12v33.1c0,4.9,1,11.5,3,18.9c-18.2-3.8-33-0.8-42.4,8.8l-0.1,0.1c-9,9.2-11.8,23.5-8.3,40.7
			c-17.3-3.2-31.6-0.1-40.7,9.1l-0.1,0.1c-8.9,9.1-11.7,23-8.5,39.9c-15.8-3.9-28.6-2.2-35.8,5.2c-9.6,9.7-9.4,27.1,0.4,49
			c9,20.1,25.3,42.3,45.9,62.5l53.8,52.9c-8.8-0.3-17.6,2.1-25.3,7.1l6.6,10c12.5-8.2,29.2-6.5,39.8,4.1l8.5-8.5
			c-0.1-0.1-0.2-0.2-0.2-0.2l0.2-0.2c-10.6-10.6-12.3-27.3-4.1-39.8l-10-6.6c-5.1,7.8-7.5,16.7-7.1,25.6l-53.8-52.9
			c-19.5-19.2-34.9-40.1-43.3-58.9c-7.4-16.6-8.5-29.9-2.8-35.7c4.8-4.8,16.9-4.8,31,0l0.1,0.3l0.1,0c7.7,21.6,23.2,44.5,43.9,64.8
			l51.3,50.4c10.6,10.4,22.5,16.2,31.8,16.2c4.7,0,8.8-1.4,11.7-4.5l-8.6-8.4c-1,1-3.8,1.5-8.8-0.1c-5.7-1.9-12.2-6.2-17.8-11.7
			l-51.3-50.4c-16.1-15.8-29.1-33.7-37-50.7c17.2,7.6,35.1,20.2,51.3,36.1l51.3,50.4c5.6,5.5,10,11.9,12,17.6
			c1.8,4.9,1.3,7.8,0.3,8.8l8.6,8.4c4.7-4.8,5.6-12.3,2.4-21.2c-2.6-7.4-7.9-15.3-14.9-22.2l-51.3-50.4
			c-20.6-20.2-43.8-35.3-65.5-42.7c-4.6-16-3.4-28.7,3.7-35.9l0,0c7.1-7.2,19.9-8.6,35.8-4.3c7.7,21.6,23.2,44.4,43.8,64.7
			l15.8,15.6l22,21.6l14.3,14c7,6.9,14.9,12,22.4,14.5c3.4,1.1,6.5,1.7,9.4,1.7c4.8,0,8.8-1.5,11.7-4.5c8.9-9,3.5-27.7-12.5-43.4
			L308.1,248c-19.9-19.6-45.2-36.2-66.4-43.8c-4.6-15.9-3.2-28.5,3.8-35.6l0,0c7.4-7.5,21.2-8.7,38.2-3.6
			c7.6,20.2,21.3,44.2,41.4,64l52.1,51.2c8.9,8.7,19.1,14.5,28,15.9v0c1.4,0.2,2.7,0.3,3.9,0.3c5.9,0,9.6-2.3,11.7-4.5
			C429.7,282.8,424.4,264.2,408.4,248.5z M351,306.9c5.6,5.5,10,11.9,12,17.6c1.8,4.9,1.3,7.8,0.3,8.8s-3.8,1.5-8.8-0.1
			c-5.7-1.9-12.2-6.2-17.8-11.7l-14.3-14l-37-36.3c-16.2-16-29.4-34.1-37.3-51.2c17.2,8.1,36,21.4,51.6,36.7L351,306.9z
			 M412.3,283.4c-0.8,0.9-2.7,1.1-5.2,0.8l-0.9,5.9l0.9-5.9c-6.3-1-14.5-5.8-21.4-12.6l-52.1-51.2c-15.6-15.3-26.7-33-34.1-48.9
			c16.5,7.7,33.6,19.9,49.2,35.2L400,257c5.6,5.5,10,11.9,12,17.6C413.8,279.6,413.3,282.5,412.3,283.4z"/>
	</g>
</g>
<g id="Шар_2">
</g>
</svg>
