<?xml version="1.0" encoding="utf-8"?>
<!-- Generator: Adobe Illustrator 24.0.3, SVG Export Plug-In . SVG Version: 6.00 Build 0)  -->
<svg version="1.1" id="Шар_1" xmlns="http://www.w3.org/2000/svg" xmlns:xlink="http://www.w3.org/1999/xlink" x="0px" y="0px"
	 viewBox="0 0 1169.1 325.8" style="enable-background:new 0 0 1169.1 325.8;" xml:space="preserve">
<style type="text/css">
	.st0{fill:#ECEBED;}
	.st1{fill:#008E39;}
	.st2{fill:#383938;}
	.st3{clip-path:url(#SVGID_2_);}
	.st4{fill:#1E1E1C;}
	.st5{fill:none;stroke:#008E39;stroke-width:12;stroke-miterlimit:10;}
	.st6{fill:none;stroke:#008E39;stroke-width:11;stroke-miterlimit:10;}
	.st7{fill:#008E39;stroke:#ECEBED;stroke-width:10.3854;stroke-miterlimit:10;}
</style>
<g>
	<g>
		<polygon class="st5" points="992.6,193 992.6,319.8 1163.1,319.8 1163.1,193 1077.9,152.9 		"/>
		<polygon class="st5" points="793.9,193 793.9,319.8 964.4,319.8 964.4,193 879.1,152.9 		"/>
		<polygon class="st5" points="598.1,193 598.1,319.8 768.6,319.8 768.6,193 683.3,152.9 		"/>
		<polygon class="st5" points="399.4,193 399.4,319.8 569.9,319.8 569.9,193 484.6,152.9 		"/>
		<polygon class="st5" points="204.7,193 204.7,319.8 375.2,319.8 375.2,193 290,152.9 		"/>
		<polygon class="st5" points="6,193 6,319.8 176.5,319.8 176.5,193 91.2,152.9 		"/>
	</g>
	<g>
		<line class="st5" x1="964.4" y1="0" x2="964.4" y2="96.6"/>
		<line class="st5" x1="1012.7" y1="48.3" x2="916.1" y2="48.3"/>
		<line class="st5" x1="998.5" y1="14.1" x2="930.2" y2="82.4"/>
		<line class="st5" x1="998.5" y1="82.4" x2="930.2" y2="14.1"/>
		<line class="st5" x1="964.4" y1="0" x2="964.4" y2="96.6"/>
		<line class="st5" x1="1012.7" y1="48.3" x2="916.1" y2="48.3"/>
		<line class="st5" x1="998.5" y1="14.1" x2="930.2" y2="82.4"/>
		<line class="st5" x1="998.5" y1="82.4" x2="930.2" y2="14.1"/>
	</g>
</g>
</svg>
